# Blender 4.2.0
# www.blender.org
mtllib Kraftwerk.mtl
o Kraftwerk
v 0.000000 1.000000 -1.800000
v -1.800000 1.000000 0.000000
v -1.800000 -0.000000 -0.740747
v -1.800000 1.000000 -0.740747
v -0.740747 -0.000000 -1.800000
v -0.740747 1.000000 -1.800000
v -1.270374 -0.000000 -1.270374
v -1.270374 1.150000 -1.270374
v 0.000000 1.122856 -1.366216
v -1.270374 1.150000 0.000000
v -0.525000 1.400000 -0.525000
v 0.000000 1.400000 -0.525000
v -0.525000 1.400000 0.000000
v -0.281258 2.668696 -0.278155
v 0.000000 2.668696 -0.278155
v -0.281258 2.668696 0.000000
v 0.000000 2.750000 0.000000
v 0.000000 0.558655 -1.800000
v -0.639028 -0.000000 -1.800000
v -0.319514 0.558655 -1.800000
v 0.000000 0.558655 -2.170184
v 0.000000 0.558655 -1.800000
v -0.639027 0.000000 -2.170184
v -0.639028 -0.000000 -1.800000
v -0.319514 0.558655 -2.170184
v -0.319514 0.558655 -1.800000
v 0.000000 0.920000 -2.363189
v -1.000000 0.000000 -2.363189
v -0.550000 0.920000 -2.363189
v 0.000000 0.920000 -3.138818
v -1.000000 0.000000 -3.138818
v -0.550000 0.920000 -3.138818
v 0.000000 0.558655 -3.400000
v 0.000000 0.000000 -3.400000
v -0.639027 0.000000 -3.400000
v -0.319514 0.558655 -3.400000
v -2.170184 0.558655 0.000000
v -1.800000 0.558655 0.000000
v -2.363189 0.920000 0.000000
v -3.138818 0.920000 0.000000
v -3.400000 0.558655 0.000000
v -3.400000 0.000000 0.000000
v -2.170184 0.000000 -0.639027
v -1.800000 -0.000000 -0.639027
v -2.170184 0.558655 -0.319514
v -1.800000 0.558655 -0.319514
v -2.363189 0.000000 -1.000000
v -2.363189 0.920000 -0.550000
v -3.138818 0.000000 -1.000000
v -3.138818 0.920000 -0.550000
v -3.400000 0.000000 -0.639027
v -3.400000 0.558655 -0.319514
v -0.403129 2.034348 -0.401577
v -0.403129 2.034348 0.000000
v 0.000000 2.034348 -0.401577
v -1.270374 1.150000 -1.270374
v -1.270374 1.150000 -1.270374
v -0.740747 1.122855 -1.366213
v -0.810556 1.225401 -1.060320
v 0.000000 1.840285 -1.207884
v -0.740747 1.840285 -1.207881
v -0.403129 2.034348 -0.401577
v 0.000000 2.034348 -0.401577
v 0.000000 1.840285 -1.207884
v -0.740747 1.840285 -1.207881
v -0.773072 1.760736 -0.773069
v -1.270374 1.150000 -0.644011
v -1.060320 1.225400 -0.810556
v -1.207880 1.840280 0.000000
v -1.207880 1.840280 -0.644011
v 1.800000 1.000000 0.000000
v 1.800000 -0.000000 -0.740747
v 1.800000 1.000000 -0.740747
v 0.740747 -0.000000 -1.800000
v 0.740747 1.000000 -1.800000
v 1.270374 -0.000000 -1.270374
v 1.270374 1.150000 -1.270374
v 1.270374 1.150000 0.000000
v 0.525000 1.400000 -0.525000
v 0.525000 1.400000 0.000000
v 0.281258 2.668696 -0.278155
v 0.281258 2.668696 0.000000
v 0.639028 -0.000000 -1.800000
v 0.319514 0.558655 -1.800000
v 0.639027 0.000000 -2.170184
v 0.639028 -0.000000 -1.800000
v 0.319514 0.558655 -2.170184
v 0.319514 0.558655 -1.800000
v 1.000000 0.000000 -2.363189
v 0.550000 0.920000 -2.363189
v 1.000000 0.000000 -3.138818
v 0.550000 0.920000 -3.138818
v 0.639027 0.000000 -3.400000
v 0.319514 0.558655 -3.400000
v 2.170184 0.558655 0.000000
v 1.800000 0.558655 0.000000
v 2.363189 0.920000 0.000000
v 3.138818 0.920000 0.000000
v 3.400000 0.558655 0.000000
v 3.400000 0.000000 0.000000
v 2.170184 0.000000 -0.639027
v 1.800000 -0.000000 -0.639027
v 2.170184 0.558655 -0.319514
v 1.800000 0.558655 -0.319514
v 2.363189 0.000000 -1.000000
v 2.363189 0.920000 -0.550000
v 3.138818 0.000000 -1.000000
v 3.138818 0.920000 -0.550000
v 3.400000 0.000000 -0.639027
v 3.400000 0.558655 -0.319514
v 0.403129 2.034348 -0.401577
v 0.403129 2.034348 0.000000
v 1.270374 1.150000 -1.270374
v 1.270374 1.150000 -1.270374
v 0.740747 1.122855 -1.366213
v 0.810556 1.225401 -1.060320
v 0.740747 1.840285 -1.207881
v 0.403129 2.034348 -0.401577
v 0.740747 1.840285 -1.207881
v 0.773072 1.760736 -0.773069
v 1.270374 1.150000 -0.644011
v 1.060320 1.225400 -0.810556
v 1.207880 1.840280 0.000000
v 1.207880 1.840280 -0.644011
v 0.000000 1.000000 1.800000
v -1.800000 -0.000000 0.740747
v -1.800000 1.000000 0.740747
v -0.740747 -0.000000 1.800000
v -0.740747 1.000000 1.800000
v -1.270374 -0.000000 1.270374
v -1.270374 1.150000 1.270374
v 0.000000 1.122856 1.366216
v -0.525000 1.400000 0.525000
v 0.000000 1.400000 0.525000
v -0.281258 2.668696 0.278155
v 0.000000 2.668696 0.278155
v 0.000000 0.558655 1.800000
v -0.639028 -0.000000 1.800000
v -0.319514 0.558655 1.800000
v 0.000000 0.558655 2.170184
v 0.000000 0.558655 1.800000
v -0.639027 0.000000 2.170184
v -0.639028 -0.000000 1.800000
v -0.319514 0.558655 2.170184
v -0.319514 0.558655 1.800000
v 0.000000 0.920000 2.363189
v -1.000000 0.000000 2.363189
v -0.550000 0.920000 2.363189
v 0.000000 0.920000 3.138818
v -1.000000 0.000000 3.138818
v -0.550000 0.920000 3.138818
v 0.000000 0.558655 3.400000
v 0.000000 0.000000 3.400000
v -0.639027 0.000000 3.400000
v -0.319514 0.558655 3.400000
v -2.170184 0.000000 0.639027
v -1.800000 -0.000000 0.639027
v -2.170184 0.558655 0.319514
v -1.800000 0.558655 0.319514
v -2.363189 0.000000 1.000000
v -2.363189 0.920000 0.550000
v -3.138818 0.000000 1.000000
v -3.138818 0.920000 0.550000
v -3.400000 0.000000 0.639027
v -3.400000 0.558655 0.319514
v -0.403129 2.034348 0.401577
v 0.000000 2.034348 0.401577
v -1.270374 1.150000 1.270374
v -1.270374 1.150000 1.270374
v -0.740747 1.122855 1.366213
v -0.810556 1.225401 1.060320
v 0.000000 1.840285 1.207884
v -0.740747 1.840285 1.207881
v -0.403129 2.034348 0.401577
v 0.000000 2.034348 0.401577
v 0.000000 1.840285 1.207884
v -0.740747 1.840285 1.207881
v -0.773072 1.760736 0.773069
v -1.270374 1.150000 0.644011
v -1.060320 1.225400 0.810556
v -1.207880 1.840280 0.644011
v 1.800000 -0.000000 0.740747
v 1.800000 1.000000 0.740747
v 0.740747 -0.000000 1.800000
v 0.740747 1.000000 1.800000
v 1.270374 -0.000000 1.270374
v 1.270374 1.150000 1.270374
v 0.525000 1.400000 0.525000
v 0.281258 2.668696 0.278155
v 0.639028 -0.000000 1.800000
v 0.319514 0.558655 1.800000
v 0.639027 0.000000 2.170184
v 0.639028 -0.000000 1.800000
v 0.319514 0.558655 2.170184
v 0.319514 0.558655 1.800000
v 1.000000 0.000000 2.363189
v 0.550000 0.920000 2.363189
v 1.000000 0.000000 3.138818
v 0.550000 0.920000 3.138818
v 0.639027 0.000000 3.400000
v 0.319514 0.558655 3.400000
v 2.170184 0.000000 0.639027
v 1.800000 -0.000000 0.639027
v 2.170184 0.558655 0.319514
v 1.800000 0.558655 0.319514
v 2.363189 0.000000 1.000000
v 2.363189 0.920000 0.550000
v 3.138818 0.000000 1.000000
v 3.138818 0.920000 0.550000
v 3.400000 0.000000 0.639027
v 3.400000 0.558655 0.319514
v 0.403129 2.034348 0.401577
v 1.270374 1.150000 1.270374
v 1.270374 1.150000 1.270374
v 0.740747 1.122855 1.366213
v 0.810556 1.225401 1.060320
v 0.740747 1.840285 1.207881
v 0.403129 2.034348 0.401577
v 0.740747 1.840285 1.207881
v 0.773072 1.760736 0.773069
v 1.270374 1.150000 0.644011
v 1.060320 1.225400 0.810556
v 1.207880 1.840280 0.644011
vn -1.0000 -0.0000 -0.0000
vn -0.7071 -0.0000 -0.7071
vn -0.0000 -0.0000 -1.0000
vn -0.2725 0.9622 -0.0000
vn -0.3180 0.9481 -0.0000
vn -0.9820 0.1887 -0.0000
vn -0.0000 0.1910 -0.9816
vn -0.0000 0.9598 -0.2806
vn -0.2777 0.9607 -0.0000
vn -0.8681 0.4965 -0.0000
vn -0.0000 1.0000 -0.0000
vn -0.0000 0.4711 0.8821
vn -0.4324 0.2250 0.8732
vn -0.8983 0.4394 -0.0000
vn -0.0000 0.5858 -0.8105
vn -0.5347 0.2783 -0.7979
vn -0.0000 0.4965 -0.8681
vn 0.8821 0.4711 -0.0000
vn 0.8732 0.2250 -0.4324
vn -0.0000 0.4394 -0.8983
vn -0.8105 0.5858 -0.0000
vn -0.7979 0.2783 -0.5347
vn -0.0093 0.9475 -0.3197
vn -0.0000 0.9622 -0.2725
vn -0.9328 0.2189 -0.2863
vn -0.0000 0.9498 -0.3129
vn -0.0000 0.2155 -0.9765
vn -0.0000 0.9722 -0.2340
vn -0.9973 0.0157 -0.0713
vn -0.6490 0.7554 0.0900
vn -0.0189 0.9535 -0.3009
vn 0.0113 0.9489 -0.3155
vn -0.3213 0.9467 0.0234
vn -0.3379 0.9412 -0.0000
vn -0.3009 0.9535 -0.0189
vn -0.9959 0.0902 -0.0000
vn -0.2344 0.9721 -0.0000
vn -0.6536 0.3959 -0.6451
vn -0.2802 0.0254 -0.9596
vn -0.0225 0.8155 -0.5783
vn 1.0000 -0.0000 -0.0000
vn 0.7071 -0.0000 -0.7071
vn 0.2725 0.9622 -0.0000
vn 0.3180 0.9481 -0.0000
vn 0.9820 0.1887 -0.0000
vn 0.2777 0.9607 -0.0000
vn 0.8681 0.4965 -0.0000
vn 0.4324 0.2250 0.8732
vn 0.8983 0.4394 -0.0000
vn 0.5347 0.2783 -0.7979
vn -0.8821 0.4711 -0.0000
vn -0.8732 0.2250 -0.4324
vn 0.8105 0.5858 -0.0000
vn 0.7979 0.2783 -0.5347
vn 0.0093 0.9475 -0.3197
vn 0.9328 0.2189 -0.2863
vn 0.9973 0.0157 -0.0713
vn 0.6490 0.7554 0.0900
vn 0.0189 0.9535 -0.3009
vn -0.0113 0.9489 -0.3155
vn 0.3213 0.9467 0.0234
vn 0.3379 0.9412 -0.0000
vn 0.3009 0.9535 -0.0189
vn 0.9959 0.0902 -0.0000
vn 0.2344 0.9721 -0.0000
vn 0.6536 0.3959 -0.6451
vn 0.2802 0.0254 -0.9596
vn 0.0225 0.8155 -0.5783
vn -0.7071 -0.0000 0.7071
vn -0.0000 -0.0000 1.0000
vn -0.0000 0.1910 0.9816
vn -0.0000 0.9598 0.2806
vn -0.0000 0.4711 -0.8821
vn -0.4324 0.2250 -0.8732
vn -0.0000 0.5858 0.8105
vn -0.5347 0.2783 0.7979
vn -0.0000 0.4965 0.8681
vn 0.8732 0.2250 0.4324
vn -0.0000 0.4394 0.8983
vn -0.7979 0.2783 0.5347
vn -0.0093 0.9475 0.3197
vn -0.0000 0.9622 0.2725
vn -0.9328 0.2189 0.2863
vn -0.0000 0.9498 0.3129
vn -0.0000 0.2155 0.9765
vn -0.0000 0.9722 0.2340
vn -0.9973 0.0157 0.0713
vn -0.6490 0.7554 -0.0900
vn -0.0189 0.9535 0.3009
vn 0.0113 0.9489 0.3155
vn -0.3213 0.9467 -0.0234
vn -0.3009 0.9535 0.0189
vn -0.6536 0.3959 0.6451
vn -0.2802 0.0254 0.9596
vn -0.0225 0.8155 0.5783
vn 0.7071 -0.0000 0.7071
vn 0.4324 0.2250 -0.8732
vn 0.5347 0.2783 0.7979
vn -0.8732 0.2250 0.4324
vn 0.7979 0.2783 0.5347
vn 0.0093 0.9475 0.3197
vn 0.9328 0.2189 0.2863
vn 0.9973 0.0157 0.0713
vn 0.6490 0.7554 -0.0900
vn 0.0189 0.9535 0.3009
vn -0.0113 0.9489 0.3155
vn 0.3213 0.9467 -0.0234
vn 0.3009 0.9535 0.0189
vn 0.6536 0.3959 0.6451
vn 0.2802 0.0254 0.9596
vn 0.0225 0.8155 0.5783
vt 0.333333 1.000000
vt 0.166667 1.000000
vt 0.250000 1.000000
vt 0.250000 0.500000
vt 0.187500 0.500000
vt 0.187500 1.000000
vt 0.125000 1.000000
vt 0.125000 0.500000
vt -0.000000 1.000000
vt 0.000000 1.000000
vt 0.375000 1.000000
vt 0.000000 0.000000
vt 0.095052 0.506946
vt 0.333333 0.500000
vt 0.166667 0.500000
vt -0.000000 0.500000
vt 0.010857 0.000001
vt 0.015080 0.120642
vt 0.000000 0.090482
s 0
f 44/1/1 46/2/1 4/3/1 3/4/1
f 7/5/2 8/6/2 6/7/2 5/8/2
f 18/9/3 20/2/3 6/7/3 1/10/3
f 3/4/2 4/3/2 8/6/2 7/5/2
f 2/11/4 10/12/4 67/13/4 4/3/4
f 10/12/5 13/12/5 11/12/5 67/13/5
f 53/12/6 54/12/6 16/12/6 14/12/6
f 55/12/7 53/12/7 14/12/7 15/12/7
f 15/12/8 14/12/8 17/12/8
f 16/12/9 17/12/9 14/12/9
f 19/1/3 5/8/3 6/7/3 20/2/3
f 23/14/10 24/1/10 26/2/10 25/15/10
f 25/15/11 26/2/11 22/9/11 21/16/11
f 25/15/12 21/16/12 27/16/12 29/15/12
f 23/14/13 25/15/13 29/15/13 28/14/13
f 29/15/11 27/16/11 30/16/11 32/15/11
f 28/14/14 29/15/14 32/15/14 31/14/14
f 32/15/15 30/16/15 33/16/15 36/15/15
f 31/14/16 32/15/16 36/15/16 35/14/16
f 33/16/3 34/12/3 35/14/3 36/15/3
f 43/14/17 45/15/17 46/2/17 44/1/17
f 45/15/11 37/16/11 38/9/11 46/2/11
f 45/15/18 48/15/18 39/16/18 37/16/18
f 43/14/19 47/14/19 48/15/19 45/15/19
f 48/15/11 50/15/11 40/16/11 39/16/11
f 47/14/20 49/14/20 50/15/20 48/15/20
f 50/15/21 52/15/21 41/16/21 40/16/21
f 49/14/22 51/14/22 52/15/22 50/15/22
f 41/16/1 52/15/1 51/14/1 42/12/1
f 38/9/1 2/11/1 4/3/1 46/2/1
f 12/12/7 11/12/7 53/12/7 55/12/7
f 11/12/6 13/12/6 54/12/6 53/12/6
f 8/12/23 56/12/23 59/17/23 58/18/23
f 9/12/24 1/12/24 6/12/24 58/12/24
f 58/12/25 59/17/25 66/12/25
f 8/12/24 58/18/24 6/7/24
f 11/12/26 12/12/26 9/19/26 58/18/26
f 58/18/27 61/12/27 60/12/27 9/19/27
f 61/12/11 60/12/11 64/12/11 65/12/11
f 55/12/11 53/12/11 62/12/11 63/12/11
f 60/12/28 64/12/28 65/12/28 61/12/28 62/12/28 63/12/28
f 66/12/29 65/12/29 58/12/29
f 61/12/30 66/12/30 62/12/30
f 59/12/31 57/12/31 11/12/31
f 58/12/32 59/12/32 11/12/32
f 67/13/33 11/12/33 68/12/33
f 4/3/4 67/13/4 8/6/4
f 68/12/34 57/12/34 67/12/34
f 57/12/35 68/12/35 11/12/35
f 10/12/36 69/12/36 70/13/36 67/13/36
f 69/12/37 54/12/37 62/12/37 70/13/37
f 66/12/38 68/12/38 67/13/38
f 70/13/39 66/12/39 67/13/39
f 62/12/40 66/12/40 70/13/40
f 102/1/41 72/4/41 73/3/41 104/2/41
f 76/5/42 74/8/42 75/7/42 77/6/42
f 18/9/3 1/10/3 75/7/3 84/2/3
f 72/4/42 76/5/42 77/6/42 73/3/42
f 71/11/43 73/3/43 121/13/43 78/12/43
f 78/12/44 121/13/44 79/12/44 80/12/44
f 111/12/45 81/12/45 82/12/45 112/12/45
f 55/12/7 15/12/7 81/12/7 111/12/7
f 15/12/8 17/12/8 81/12/8
f 82/12/46 81/12/46 17/12/46
f 83/1/3 84/2/3 75/7/3 74/8/3
f 85/14/47 87/15/47 88/2/47 86/1/47
f 87/15/11 21/16/11 22/9/11 88/2/11
f 87/15/12 90/15/12 27/16/12 21/16/12
f 85/14/48 89/14/48 90/15/48 87/15/48
f 90/15/11 92/15/11 30/16/11 27/16/11
f 89/14/49 91/14/49 92/15/49 90/15/49
f 92/15/15 94/15/15 33/16/15 30/16/15
f 91/14/50 93/14/50 94/15/50 92/15/50
f 33/16/3 94/15/3 93/14/3 34/12/3
f 101/14/17 102/1/17 104/2/17 103/15/17
f 103/15/11 104/2/11 96/9/11 95/16/11
f 103/15/51 95/16/51 97/16/51 106/15/51
f 101/14/52 103/15/52 106/15/52 105/14/52
f 106/15/11 97/16/11 98/16/11 108/15/11
f 105/14/20 106/15/20 108/15/20 107/14/20
f 108/15/53 98/16/53 99/16/53 110/15/53
f 107/14/54 108/15/54 110/15/54 109/14/54
f 99/16/41 100/12/41 109/14/41 110/15/41
f 96/9/41 104/2/41 73/3/41 71/11/41
f 12/12/7 55/12/7 111/12/7 79/12/7
f 79/12/45 111/12/45 112/12/45 80/12/45
f 77/12/55 115/18/55 116/17/55 113/12/55
f 9/12/24 115/12/24 75/12/24 1/12/24
f 115/12/56 120/12/56 116/17/56
f 77/12/24 75/7/24 115/18/24
f 79/12/26 115/18/26 9/19/26 12/12/26
f 115/18/27 9/19/27 60/12/27 117/12/27
f 117/12/11 119/12/11 64/12/11 60/12/11
f 55/12/11 63/12/11 118/12/11 111/12/11
f 60/12/28 63/12/28 118/12/28 117/12/28 119/12/28 64/12/28
f 120/12/57 115/12/57 119/12/57
f 117/12/58 118/12/58 120/12/58
f 116/12/59 79/12/59 114/12/59
f 115/12/60 79/12/60 116/12/60
f 121/13/61 122/12/61 79/12/61
f 73/3/43 77/6/43 121/13/43
f 122/12/62 121/12/62 114/12/62
f 114/12/63 79/12/63 122/12/63
f 78/12/64 121/13/64 124/13/64 123/12/64
f 123/12/65 124/13/65 118/12/65 112/12/65
f 120/12/66 121/13/66 122/12/66
f 124/13/67 121/13/67 120/12/67
f 118/12/68 124/13/68 120/12/68
f 157/1/1 126/4/1 127/3/1 159/2/1
f 130/5/69 128/8/69 129/7/69 131/6/69
f 137/9/70 125/10/70 129/7/70 139/2/70
f 126/4/69 130/5/69 131/6/69 127/3/69
f 2/11/4 127/3/4 179/13/4 10/12/4
f 10/12/5 179/13/5 133/12/5 13/12/5
f 166/12/6 135/12/6 16/12/6 54/12/6
f 167/12/71 136/12/71 135/12/71 166/12/71
f 136/12/72 17/12/72 135/12/72
f 16/12/9 135/12/9 17/12/9
f 138/1/70 139/2/70 129/7/70 128/8/70
f 142/14/10 144/15/10 145/2/10 143/1/10
f 144/15/11 140/16/11 141/9/11 145/2/11
f 144/15/73 148/15/73 146/16/73 140/16/73
f 142/14/74 147/14/74 148/15/74 144/15/74
f 148/15/11 151/15/11 149/16/11 146/16/11
f 147/14/14 150/14/14 151/15/14 148/15/14
f 151/15/75 155/15/75 152/16/75 149/16/75
f 150/14/76 154/14/76 155/15/76 151/15/76
f 152/16/70 155/15/70 154/14/70 153/12/70
f 156/14/77 157/1/77 159/2/77 158/15/77
f 158/15/11 159/2/11 38/9/11 37/16/11
f 158/15/18 37/16/18 39/16/18 161/15/18
f 156/14/78 158/15/78 161/15/78 160/14/78
f 161/15/11 39/16/11 40/16/11 163/15/11
f 160/14/79 161/15/79 163/15/79 162/14/79
f 163/15/21 40/16/21 41/16/21 165/15/21
f 162/14/80 163/15/80 165/15/80 164/14/80
f 41/16/1 42/12/1 164/14/1 165/15/1
f 38/9/1 159/2/1 127/3/1 2/11/1
f 134/12/71 167/12/71 166/12/71 133/12/71
f 133/12/6 166/12/6 54/12/6 13/12/6
f 131/12/81 170/18/81 171/17/81 168/12/81
f 132/12/82 170/12/82 129/12/82 125/12/82
f 170/12/83 178/12/83 171/17/83
f 131/12/82 129/7/82 170/18/82
f 133/12/84 170/18/84 132/19/84 134/12/84
f 170/18/85 132/19/85 172/12/85 173/12/85
f 173/12/11 177/12/11 176/12/11 172/12/11
f 167/12/11 175/12/11 174/12/11 166/12/11
f 172/12/86 175/12/86 174/12/86 173/12/86 177/12/86 176/12/86
f 178/12/87 170/12/87 177/12/87
f 173/12/88 174/12/88 178/12/88
f 171/12/89 133/12/89 169/12/89
f 170/12/90 133/12/90 171/12/90
f 179/13/91 180/12/91 133/12/91
f 127/3/4 131/6/4 179/13/4
f 180/12/34 179/12/34 169/12/34
f 169/12/92 133/12/92 180/12/92
f 10/12/36 179/13/36 181/13/36 69/12/36
f 69/12/37 181/13/37 174/12/37 54/12/37
f 178/12/93 179/13/93 180/12/93
f 181/13/94 179/13/94 178/12/94
f 174/12/95 181/13/95 178/12/95
f 203/1/41 205/2/41 183/3/41 182/4/41
f 186/5/96 187/6/96 185/7/96 184/8/96
f 137/9/70 191/2/70 185/7/70 125/10/70
f 182/4/96 183/3/96 187/6/96 186/5/96
f 71/11/43 78/12/43 221/13/43 183/3/43
f 78/12/44 80/12/44 188/12/44 221/13/44
f 212/12/45 112/12/45 82/12/45 189/12/45
f 167/12/71 212/12/71 189/12/71 136/12/71
f 136/12/72 189/12/72 17/12/72
f 82/12/46 17/12/46 189/12/46
f 190/1/70 184/8/70 185/7/70 191/2/70
f 192/14/47 193/1/47 195/2/47 194/15/47
f 194/15/11 195/2/11 141/9/11 140/16/11
f 194/15/73 140/16/73 146/16/73 197/15/73
f 192/14/97 194/15/97 197/15/97 196/14/97
f 197/15/11 146/16/11 149/16/11 199/15/11
f 196/14/49 197/15/49 199/15/49 198/14/49
f 199/15/75 149/16/75 152/16/75 201/15/75
f 198/14/98 199/15/98 201/15/98 200/14/98
f 152/16/70 153/12/70 200/14/70 201/15/70
f 202/14/77 204/15/77 205/2/77 203/1/77
f 204/15/11 95/16/11 96/9/11 205/2/11
f 204/15/51 207/15/51 97/16/51 95/16/51
f 202/14/99 206/14/99 207/15/99 204/15/99
f 207/15/11 209/15/11 98/16/11 97/16/11
f 206/14/79 208/14/79 209/15/79 207/15/79
f 209/15/53 211/15/53 99/16/53 98/16/53
f 208/14/100 210/14/100 211/15/100 209/15/100
f 99/16/41 211/15/41 210/14/41 100/12/41
f 96/9/41 71/11/41 183/3/41 205/2/41
f 134/12/71 188/12/71 212/12/71 167/12/71
f 188/12/45 80/12/45 112/12/45 212/12/45
f 187/12/101 213/12/101 216/17/101 215/18/101
f 132/12/82 125/12/82 185/12/82 215/12/82
f 215/12/102 216/17/102 220/12/102
f 187/12/82 215/18/82 185/7/82
f 188/12/84 134/12/84 132/19/84 215/18/84
f 215/18/85 217/12/85 172/12/85 132/19/85
f 217/12/11 172/12/11 176/12/11 219/12/11
f 167/12/11 212/12/11 218/12/11 175/12/11
f 172/12/86 176/12/86 219/12/86 217/12/86 218/12/86 175/12/86
f 220/12/103 219/12/103 215/12/103
f 217/12/104 220/12/104 218/12/104
f 216/12/105 214/12/105 188/12/105
f 215/12/106 216/12/106 188/12/106
f 221/13/107 188/12/107 222/12/107
f 183/3/43 221/13/43 187/6/43
f 222/12/62 214/12/62 221/12/62
f 214/12/108 222/12/108 188/12/108
f 78/12/64 123/12/64 223/13/64 221/13/64
f 123/12/65 112/12/65 218/12/65 223/13/65
f 220/12/109 222/12/109 221/13/109
f 223/13/110 220/12/110 221/13/110
f 218/12/111 220/12/111 223/13/111
l 56 57
l 53 66
l 113 114
l 111 120
l 168 169
l 166 178
l 213 214
l 212 220
o PlayerLogo.004
v 1.591094 0.939535 -1.010904
v 1.591094 0.108102 -1.010904
v 1.003182 0.939535 -1.598815
v 1.003182 0.108102 -1.598815
v -1.591094 0.939535 -1.010904
v -1.591094 0.108102 -1.010904
v -1.003182 0.939535 -1.598815
v -1.003182 0.108102 -1.598815
v 1.591094 0.939535 1.010904
v 1.591094 0.108102 1.010904
v 1.003182 0.939535 1.598815
v 1.003182 0.108102 1.598815
v -1.591094 0.939535 1.010904
v -1.591094 0.108102 1.010904
v -1.003182 0.939535 1.598815
v -1.003182 0.108102 1.598815
vn 0.7071 -0.0000 -0.7071
vn -0.7071 -0.0000 -0.7071
vn 0.7071 -0.0000 0.7071
vn -0.7071 -0.0000 0.7071
vt 0.000000 0.000000
vt 1.000000 0.000000
vt 1.000000 1.000000
vt 0.000000 1.000000
s 0
f 224/20/112 225/21/112 227/22/112 226/23/112
f 228/20/113 230/23/113 231/22/113 229/21/113
f 232/20/114 234/23/114 235/22/114 233/21/114
f 236/20/115 237/21/115 239/22/115 238/23/115
