# Blender 4.2.0
# www.blender.org
mtllib leichterGeschützturm.mtl
o leichter_Geschützturm
v 0.000000 0.000000 0.560436
v 0.000000 0.750000 0.373624
v -0.232140 0.000000 0.560436
v -0.560436 0.000000 0.232140
v -0.373624 0.750000 0.154760
v -0.560436 0.000000 0.000000
v -0.373624 0.750000 0.000000
v 0.000000 0.500000 0.373624
v -0.154760 0.500000 0.373624
v -0.373624 0.500000 0.154760
v -0.373624 0.500000 0.000000
v -0.570475 0.000000 0.750000
v -0.750000 0.000000 0.570475
v -0.154760 0.750000 0.373624
v 0.000000 0.800000 0.409846
v 0.000000 0.800000 0.000000
v -0.409846 0.800000 0.149953
v -0.409847 0.800000 0.000000
v -0.149953 0.800000 0.409846
v 0.232140 0.000000 0.560436
v 0.560436 0.000000 0.232140
v 0.373624 0.750000 0.154760
v 0.560436 0.000000 0.000000
v 0.373624 0.750000 0.000000
v 0.154760 0.500000 0.373624
v 0.373624 0.500000 0.154760
v 0.373624 0.500000 0.000000
v 0.570475 0.000000 0.750000
v 0.750000 0.000000 0.570475
v 0.154760 0.750000 0.373624
v 0.409846 0.800000 0.149953
v 0.409847 0.800000 0.000000
v 0.149953 0.800000 0.409846
v 0.000000 0.000000 -0.560436
v 0.000000 0.750000 -0.373624
v -0.232140 0.000000 -0.560436
v -0.560436 0.000000 -0.232140
v -0.373624 0.750000 -0.154760
v 0.000000 0.500000 -0.373624
v -0.154760 0.500000 -0.373624
v -0.373624 0.500000 -0.154760
v -0.570475 0.000000 -0.750000
v -0.750000 0.000000 -0.570475
v -0.154760 0.750000 -0.373624
v 0.000000 0.800000 -0.409846
v -0.409846 0.800000 -0.149953
v -0.149953 0.800000 -0.409846
v 0.232140 0.000000 -0.560436
v 0.560436 0.000000 -0.232140
v 0.373624 0.750000 -0.154760
v 0.154760 0.500000 -0.373624
v 0.373624 0.500000 -0.154760
v 0.570475 0.000000 -0.750000
v 0.750000 0.000000 -0.570475
v 0.154760 0.750000 -0.373624
v 0.409846 0.800000 -0.149953
v 0.149953 0.800000 -0.409846
vn -0.0000 -0.0000 1.0000
vn -0.7071 -0.0000 0.7071
vn -1.0000 -0.0000 -0.0000
vn -0.9368 0.3500 -0.0000
vn -0.0000 0.3500 0.9368
vn -0.4709 0.7460 0.4709
vn 0.4742 0.2428 0.8463
vn -0.0000 -1.0000 -0.0000
vn -0.8463 0.2428 -0.4742
vn -0.6462 -0.4060 0.6462
vn -0.0000 1.0000 -0.0000
vn -0.0000 -0.5867 0.8098
vn -0.8098 -0.5867 -0.0000
vn 0.7071 -0.0000 0.7071
vn 1.0000 -0.0000 -0.0000
vn 0.9368 0.3500 -0.0000
vn 0.4709 0.7460 0.4709
vn -0.4742 0.2428 0.8463
vn 0.8463 0.2428 -0.4742
vn 0.6462 -0.4060 0.6462
vn 0.8098 -0.5867 -0.0000
vn -0.0000 -0.0000 -1.0000
vn -0.7071 -0.0000 -0.7071
vn -0.0000 0.3500 -0.9368
vn -0.4709 0.7460 -0.4709
vn 0.4742 0.2428 -0.8463
vn -0.8463 0.2428 0.4742
vn -0.6462 -0.4060 -0.6462
vn -0.0000 -0.5867 -0.8098
vn 0.7071 -0.0000 -0.7071
vn 0.4709 0.7460 -0.4709
vn -0.4742 0.2428 -0.8463
vn 0.8463 0.2428 0.4742
vn 0.6462 -0.4060 -0.6462
vt 0.375000 0.815385
vt 0.500000 0.815385
vt 0.250000 1.000000
vt 0.250000 0.815385
vt 0.125000 1.000000
vt 0.125000 0.815385
vt 0.250000 0.500000
vt 0.125000 0.500000
vt 0.500000 0.500000
vt 0.375000 0.500000
vt 0.000000 0.000000
vt 0.375000 1.000000
s 0
f 9/1/1 8/2/1 2/2/1 14/1/1
f 9/1/2 14/1/2 5/3/2 10/4/2
f 10/4/3 5/3/3 7/5/3 11/6/3
f 4/7/4 10/4/4 11/6/4 6/8/4
f 1/9/5 8/2/5 9/1/5 3/10/5
f 10/4/6 13/11/6 12/11/6 9/1/6
f 3/11/7 9/1/7 12/11/7
f 4/11/8 3/11/8 12/11/8 13/11/8
f 4/11/9 13/11/9 10/4/9
f 5/3/10 14/1/10 19/1/10 17/3/10
f 17/3/11 16/12/11 18/5/11
f 15/2/11 16/11/11 19/1/11
f 17/3/11 19/1/11 16/11/11
f 14/1/12 2/2/12 15/2/12 19/1/12
f 7/5/13 5/3/13 17/3/13 18/5/13
f 25/1/1 30/1/1 2/2/1 8/2/1
f 25/1/14 26/4/14 22/3/14 30/1/14
f 26/4/15 27/6/15 24/5/15 22/3/15
f 21/7/16 23/8/16 27/6/16 26/4/16
f 1/9/5 20/10/5 25/1/5 8/2/5
f 26/4/17 25/1/17 28/11/17 29/11/17
f 20/11/18 28/11/18 25/1/18
f 21/11/8 29/11/8 28/11/8 20/11/8
f 21/11/19 26/4/19 29/11/19
f 22/3/20 31/3/20 33/1/20 30/1/20
f 31/3/11 32/5/11 16/12/11
f 15/2/11 33/1/11 16/11/11
f 31/3/11 16/11/11 33/1/11
f 30/1/12 33/1/12 15/2/12 2/2/12
f 24/5/21 32/5/21 31/3/21 22/3/21
f 40/1/22 44/1/22 35/2/22 39/2/22
f 40/1/23 41/4/23 38/3/23 44/1/23
f 41/4/3 11/6/3 7/5/3 38/3/3
f 37/7/4 6/8/4 11/6/4 41/4/4
f 34/9/24 36/10/24 40/1/24 39/2/24
f 41/4/25 40/1/25 42/11/25 43/11/25
f 36/11/26 42/11/26 40/1/26
f 37/11/8 43/11/8 42/11/8 36/11/8
f 37/11/27 41/4/27 43/11/27
f 38/3/28 46/3/28 47/1/28 44/1/28
f 46/3/11 18/5/11 16/12/11
f 45/2/11 47/1/11 16/11/11
f 46/3/11 16/11/11 47/1/11
f 44/1/29 47/1/29 45/2/29 35/2/29
f 7/5/13 18/5/13 46/3/13 38/3/13
f 51/1/22 39/2/22 35/2/22 55/1/22
f 51/1/30 55/1/30 50/3/30 52/4/30
f 52/4/15 50/3/15 24/5/15 27/6/15
f 49/7/16 52/4/16 27/6/16 23/8/16
f 34/9/24 39/2/24 51/1/24 48/10/24
f 52/4/31 54/11/31 53/11/31 51/1/31
f 48/11/32 51/1/32 53/11/32
f 49/11/8 48/11/8 53/11/8 54/11/8
f 49/11/33 54/11/33 52/4/33
f 50/3/34 55/1/34 57/1/34 56/3/34
f 56/3/11 16/12/11 32/5/11
f 45/2/11 16/11/11 57/1/11
f 56/3/11 57/1/11 16/11/11
f 55/1/29 35/2/29 45/2/29 57/1/29
f 24/5/21 50/3/21 56/3/21 32/5/21
