# Blender 4.2.0
# www.blender.org
mtllib Mauer.mtl
o Mauer.001
v -1.500000 0.000000 1.300000
v 1.500000 0.000000 1.300000
v -1.500000 0.000000 -1.300000
v 1.500000 0.000000 -1.300000
v -0.884088 0.250000 0.766209
v 0.884088 0.250000 0.766209
v -0.884088 0.250000 -0.766209
v 0.884088 0.250000 -0.766209
vn -0.0000 -1.0000 -0.0000
vn -0.0000 1.0000 -0.0000
vn 0.3761 0.9266 -0.0000
vn -0.3761 0.9266 -0.0000
vn -0.0000 0.9056 -0.4241
vn -0.0000 0.9056 0.4241
vt 0.000000 0.000000
vt 0.000000 1.000000
vt 1.000000 1.000000
vt 1.000000 0.000000
s 0
f 1/1/1 3/2/1 4/3/1 2/4/1
f 5/1/2 6/4/2 8/3/2 7/2/2
f 2/4/3 4/3/3 8/3/3 6/4/3
f 3/2/4 1/1/4 5/1/4 7/2/4
f 4/3/5 3/2/5 7/2/5 8/3/5
f 1/1/6 2/4/6 6/4/6 5/1/6
o Mauer
v -0.550000 0.000000 0.600000
v -0.550000 1.497429 0.396874
v -0.550000 0.000000 -0.600000
v -0.550000 1.497429 -0.396874
v 0.550000 0.000000 0.600000
v 0.550000 1.497429 0.396874
v 0.550000 0.000000 -0.600000
v 0.550000 1.497429 -0.396874
v 0.550000 0.524749 -0.500000
v 0.550000 0.524748 0.500000
v 1.500000 0.453680 -0.396874
v -0.550000 0.524749 -0.500000
v -1.500000 0.000000 -0.396874
v -1.500000 0.000000 0.396874
v -1.500000 1.300000 0.396874
v -1.500000 1.300000 -0.396874
v 1.500000 0.000000 -0.396874
v 1.500000 0.000000 0.396874
v 1.500000 1.300000 -0.396874
v 1.500000 1.300000 0.396874
v 1.500000 0.453680 0.396874
v -0.550000 0.524748 0.500000
v -1.500000 0.453680 -0.396874
v -1.500000 0.453680 0.396874
vn 1.0000 -0.0000 -0.0000
vn -1.0000 -0.0000 -0.0000
vn -0.1620 0.1003 -0.9817
vn -0.0000 1.0000 -0.0000
vn -0.0000 0.1054 -0.9944
vn 0.1620 0.1003 -0.9817
vn 0.2035 0.9791 -0.0000
vn 0.1620 0.1003 0.9817
vn -0.0621 0.0565 0.9965
vn -0.2035 0.9791 -0.0000
vn -0.0000 0.1054 0.9944
vn -0.0000 0.1872 0.9823
vn -0.1620 0.1003 0.9817
vn 0.0621 0.0565 0.9965
vn 0.0621 0.0565 -0.9965
vn -0.0000 0.1872 -0.9823
vn -0.0621 0.0565 -0.9965
vt 0.464992 0.500000
vt 0.464992 0.750000
vt 0.375000 0.750000
vt 0.375000 0.500000
vt 0.125000 0.500000
vt 0.125000 0.750000
vt 0.394977 0.750000
vt 0.394977 0.500000
vt 0.394977 0.500000
vt 0.625000 0.500000
vt 0.875000 0.500000
vt 0.875000 0.750000
vt 0.625000 0.750000
vt 0.464992 0.750000
s 0
f 19/5/7 29/6/7 26/7/7 25/8/7
f 21/9/8 22/10/8 32/11/8 31/12/8
f 20/13/9 11/9/9 21/9/9 31/12/9
f 16/14/10 12/15/10 10/16/10 14/17/10
f 17/5/11 20/13/11 12/15/11 16/14/11
f 19/5/12 25/8/12 15/8/12 17/5/12
f 16/14/13 14/17/13 28/17/13 27/14/13
f 18/18/14 13/7/14 26/7/14 29/6/14
f 30/11/15 10/16/15 23/16/15 32/11/15
f 10/16/16 12/15/16 24/15/16 23/16/16
f 30/11/17 18/18/17 14/17/17 10/16/17
f 31/12/8 32/11/8 23/16/8 24/15/8
f 9/10/18 13/7/18 18/18/18 30/11/18
f 9/10/19 30/11/19 32/11/19 22/10/19
f 14/17/20 18/18/20 29/6/20 28/17/20
f 27/14/21 19/5/21 17/5/21 16/14/21
f 15/8/22 11/9/22 20/13/22 17/5/22
f 12/15/23 20/13/23 31/12/23 24/15/23
f 27/14/7 28/17/7 29/6/7 19/5/7
