# Blender 4.2.0
# www.blender.org
mtllib Panzersperre.mtl
o Base.002
v -0.875000 0.000000 0.875000
v 0.875000 0.000000 0.875000
v -0.875000 0.000000 -0.875000
v 0.875000 0.000000 -0.875000
v 0.000000 0.150000 0.000000
vn -0.0000 0.9856 0.1690
vn 0.1690 0.9856 -0.0000
vn -0.0000 0.9856 -0.1690
vn -0.1690 0.9856 -0.0000
vt 0.000000 0.000000
s 0
f 2/1/1 5/1/1 1/1/1
f 4/1/2 5/1/2 2/1/2
f 3/1/3 5/1/3 4/1/3
f 3/1/4 1/1/4 5/1/4
o Panzersperre
v -0.461530 0.000000 0.002769
v -0.461530 0.900000 0.002769
v -0.724031 0.000000 0.154321
v -0.724031 0.900000 0.154321
v -0.724029 0.000000 -0.148788
v -0.724029 0.900000 -0.148788
v -0.000002 0.000000 -0.172233
v -0.000002 0.900000 -0.172233
v 0.151553 0.000000 0.090267
v 0.151553 0.900000 0.090267
v -0.151556 0.000000 0.090267
v -0.151556 0.900000 0.090267
v 0.461527 0.000000 0.002768
v 0.461527 0.900000 0.002768
v 0.724027 0.000000 -0.148787
v 0.724027 0.900000 -0.148787
v 0.724027 0.000000 0.154322
v 0.724027 0.900000 0.154322
vn 0.5000 -0.0000 0.8660
vn -1.0000 -0.0000 -0.0000
vn -0.0000 1.0000 -0.0000
vn 0.5000 -0.0000 -0.8660
vn 0.8660 -0.0000 -0.5000
vn -0.0000 -0.0000 1.0000
vn -0.8660 -0.0000 -0.5000
vn -0.5000 -0.0000 -0.8660
vn 1.0000 -0.0000 -0.0000
vn -0.5000 -0.0000 0.8660
vt 1.000000 0.500000
vt 1.000000 1.000000
vt 0.666667 1.000000
vt 0.666667 0.500000
vt 0.333333 1.000000
vt 0.333333 0.500000
vt 0.457846 0.130000
vt 0.250000 0.490000
vt 0.042154 0.130000
vt -0.000000 1.000000
vt -0.000000 0.500000
s 0
f 6/2/5 7/3/5 9/4/5 8/5/5
f 8/5/6 9/4/6 11/6/6 10/7/6
f 9/8/7 7/9/7 11/10/7
f 10/7/8 11/6/8 7/11/8 6/12/8
f 12/2/9 13/3/9 15/4/9 14/5/9
f 14/5/10 15/4/10 17/6/10 16/7/10
f 15/8/7 13/9/7 17/10/7
f 16/7/11 17/6/11 13/11/11 12/12/11
f 18/2/12 19/3/12 21/4/12 20/5/12
f 20/5/13 21/4/13 23/6/13 22/7/13
f 21/8/7 19/9/7 23/10/7
f 22/7/14 23/6/14 19/11/14 18/12/14
