# Blender 4.1.1
# www.blender.org
mtllib headquarter.mtl
o Headquarter.001
v -0.904191 -0.137303 -0.754551
v -1.038049 1.043469 -0.949245
v -2.010301 -0.137303 -0.754551
v -1.928453 1.043469 -0.949245
v -0.904191 -0.137303 -2.021139
v -1.038049 1.043469 -1.803651
v -2.010301 -0.137303 -2.021139
v -1.928453 1.043469 -1.803650
v -0.904191 -0.137303 -0.754551
vn -0.0000 0.1627 0.9867
vn -0.9976 0.0692 -0.0000
vn -0.0000 0.1811 -0.9835
vn 0.9936 0.1126 -0.0000
vn -0.0000 -1.0000 -0.0000
vn -0.0000 1.0000 -0.0000
vt 0.375000 0.000000
vt 0.625000 0.000000
vt 0.625000 0.250000
vt 0.375000 0.250000
vt 0.625000 0.500000
vt 0.375000 0.500000
vt 0.625000 0.750000
vt 0.375000 0.750000
vt 0.625000 1.000000
vt 0.375000 1.000000
vt 0.125000 0.500000
vt 0.125000 0.750000
vt 0.875000 0.500000
vt 0.875000 0.750000
s 0
f 1/1/1 9/1/1 2/2/1 4/3/1 3/4/1
f 3/4/2 4/3/2 8/5/2 7/6/2
f 7/6/3 8/5/3 6/7/3 5/8/3
f 5/8/4 6/7/4 2/9/4 9/10/4 1/10/4
f 3/11/5 7/6/5 5/8/5 1/12/5
f 8/5/6 4/13/6 2/14/6 6/7/6
o Headquarter.002
v 2.054353 -0.137303 -0.754551
v 1.920495 1.043469 -0.949245
v 0.948244 -0.137303 -0.754551
v 1.030091 1.043469 -0.949245
v 2.054353 -0.137303 -2.021139
v 1.920495 1.043469 -1.803651
v 0.948243 -0.137303 -2.021139
v 1.030091 1.043469 -1.803650
v 2.054353 -0.137303 -0.754551
vn -0.0000 0.1627 0.9867
vn -0.9976 0.0692 -0.0000
vn -0.0000 0.1811 -0.9835
vn 0.9936 0.1126 -0.0000
vn -0.0000 -1.0000 -0.0000
vn -0.0000 1.0000 -0.0000
vt 0.375000 0.000000
vt 0.625000 0.000000
vt 0.625000 0.250000
vt 0.375000 0.250000
vt 0.625000 0.500000
vt 0.375000 0.500000
vt 0.625000 0.750000
vt 0.375000 0.750000
vt 0.625000 1.000000
vt 0.375000 1.000000
vt 0.125000 0.500000
vt 0.125000 0.750000
vt 0.875000 0.500000
vt 0.875000 0.750000
s 0
f 10/15/7 18/15/7 11/16/7 13/17/7 12/18/7
f 12/18/8 13/17/8 17/19/8 16/20/8
f 16/20/9 17/19/9 15/21/9 14/22/9
f 14/22/10 15/21/10 11/23/10 18/24/10 10/24/10
f 12/25/11 16/20/11 14/22/11 10/26/11
f 17/19/12 13/27/12 11/28/12 15/21/12
o Headquarter.003
v -0.904191 -0.137303 2.017007
v -1.038049 1.043469 1.822313
v -2.010301 -0.137303 2.017007
v -1.928453 1.043469 1.822313
v -0.904191 -0.137303 0.750419
v -1.038049 1.043469 0.967907
v -2.010301 -0.137303 0.750419
v -1.928453 1.043469 0.967907
v -0.904191 -0.137303 2.017007
vn -0.0000 0.1627 0.9867
vn -0.9976 0.0692 -0.0000
vn -0.0000 0.1811 -0.9835
vn 0.9936 0.1126 -0.0000
vn -0.0000 -1.0000 -0.0000
vn -0.0000 1.0000 -0.0000
vt 0.375000 0.000000
vt 0.625000 0.000000
vt 0.625000 0.250000
vt 0.375000 0.250000
vt 0.625000 0.500000
vt 0.375000 0.500000
vt 0.625000 0.750000
vt 0.375000 0.750000
vt 0.625000 1.000000
vt 0.375000 1.000000
vt 0.125000 0.500000
vt 0.125000 0.750000
vt 0.875000 0.500000
vt 0.875000 0.750000
s 0
f 19/29/13 27/29/13 20/30/13 22/31/13 21/32/13
f 21/32/14 22/31/14 26/33/14 25/34/14
f 25/34/15 26/33/15 24/35/15 23/36/15
f 23/36/16 24/35/16 20/37/16 27/38/16 19/38/16
f 21/39/17 25/34/17 23/36/17 19/40/17
f 26/33/18 22/41/18 20/42/18 24/35/18
o Headquarter.004
v 2.054353 -0.137303 2.017007
v 1.920495 1.043469 1.822313
v 0.948244 -0.137303 2.017007
v 1.030091 1.043469 1.822313
v 2.054353 -0.137303 0.750419
v 1.920495 1.043469 0.967907
v 0.948243 -0.137303 0.750419
v 1.030091 1.043469 0.967907
v 2.054353 -0.137303 2.017007
vn -0.0000 0.1627 0.9867
vn -0.9976 0.0692 -0.0000
vn -0.0000 0.1811 -0.9835
vn 0.9936 0.1126 -0.0000
vn -0.0000 -1.0000 -0.0000
vn -0.0000 1.0000 -0.0000
vt 0.375000 0.000000
vt 0.625000 0.000000
vt 0.625000 0.250000
vt 0.375000 0.250000
vt 0.625000 0.500000
vt 0.375000 0.500000
vt 0.625000 0.750000
vt 0.375000 0.750000
vt 0.625000 1.000000
vt 0.375000 1.000000
vt 0.125000 0.500000
vt 0.125000 0.750000
vt 0.875000 0.500000
vt 0.875000 0.750000
s 0
f 28/43/19 36/43/19 29/44/19 31/45/19 30/46/19
f 30/46/20 31/45/20 35/47/20 34/48/20
f 34/48/21 35/47/21 33/49/21 32/50/21
f 32/50/22 33/49/22 29/51/22 36/52/22 28/52/22
f 30/53/23 34/48/23 32/50/23 28/54/23
f 35/47/24 31/55/24 29/56/24 33/49/24
o Cube
v -1.928134 1.043468 1.821280
v -2.264570 1.503647 2.061646
v -1.928134 1.043468 -1.802050
v -2.264570 1.503647 -2.101489
v 1.922873 1.043468 1.821280
v 2.423125 1.503647 2.061646
v 1.922873 1.043468 -1.802050
v 2.423125 1.503647 -2.101489
v -2.264570 2.209940 2.061646
v -2.264570 2.209940 -2.101489
v 2.423125 2.209940 -2.101489
v 2.423125 2.209940 2.061646
v 2.423125 2.209940 1.020863
v -2.264570 2.209940 1.020863
v 1.251201 2.209940 -2.101489
v -1.678608 2.209940 2.061646
v -1.092646 2.209940 -2.101489
v 2.423125 2.209940 -1.060705
v 2.423125 2.209940 1.541254
v 1.837163 2.209940 -2.101489
v 1.251201 2.209940 2.061646
v 0.079278 2.547535 -1.060705
v -2.264570 2.209940 -1.060705
v -2.264570 2.209940 -1.581097
v 0.079278 2.547535 -0.019921
v 0.079278 2.209940 2.061646
v 0.079278 2.547535 1.020863
v 2.423125 2.209940 -0.019921
v 1.251201 2.547535 -1.060705
v 1.251201 3.050371 1.020863
v -1.092646 2.209940 -0.019921
v -1.092646 3.050371 1.020863
v 1.251201 2.209940 -0.019921
v -1.092646 2.209940 2.061646
v 0.079278 2.209940 -2.101489
v -1.092646 2.547535 -1.060705
v -2.264570 2.209940 -0.019921
v -1.678608 2.547535 1.020863
v 2.423125 2.209940 0.500471
v 0.665239 2.209940 -2.101489
v -2.264570 2.209940 -0.540313
v -1.092646 2.547535 1.541254
v 0.665239 2.547535 -0.019921
v -1.092646 2.547535 0.500471
v -0.506684 2.547535 -1.060705
v -1.678608 2.547535 -1.060705
v -1.092646 2.547535 -0.540313
v -1.092646 2.547535 -1.581097
v -2.264570 2.209940 1.541254
v -1.678608 2.209940 -0.019921
v -1.678608 2.209940 -2.101489
v 0.079278 2.547535 0.500471
v 1.837163 2.547535 -1.060705
v 0.665239 2.547535 -1.060705
v 2.423125 2.209940 -1.581097
v 1.251201 2.547535 -0.540313
v 1.837163 2.209940 2.061646
v 1.837163 2.209940 -0.019921
v 0.079278 2.547535 -0.540313
v -0.506684 2.547535 -0.019921
v 0.079278 2.547535 1.541254
v 1.251201 2.547535 -1.581097
v 0.079278 2.547535 -1.581097
v 0.665239 2.209940 2.061646
v -0.506684 2.209940 2.061646
v 1.837163 2.547535 1.020863
v 0.665239 2.547535 1.020863
v 1.251201 2.547535 1.541254
v 1.251201 2.547535 0.500471
v 2.423125 2.209940 -0.540313
v -0.506684 2.209940 -2.101489
v -0.506684 2.547535 1.020863
v -2.264570 2.209940 0.500471
v -0.506684 2.547535 -1.581097
v 1.837163 2.547535 -0.540313
v 0.665239 2.547535 -0.540313
v 0.665239 2.547535 -1.581097
v -1.678608 2.547535 -1.581097
v -0.506684 2.547535 0.500471
v -1.678608 2.547535 0.500471
v 0.665239 2.547535 1.541254
v -0.506684 2.547535 1.541254
v -1.678608 2.547535 -0.540313
v -1.678608 2.547535 1.541254
v 0.665239 2.547535 0.500471
v 1.837163 2.547535 0.500471
v 1.837163 2.547535 1.541254
v -0.506684 2.547535 -0.540313
v 1.837163 2.547535 -1.581097
v -1.092646 2.547535 1.281059
v -1.385627 2.547535 1.020863
v -0.799665 2.547535 1.020863
v -1.092646 2.547535 0.760667
v -0.506684 2.547535 0.760667
v -0.799665 2.547535 0.500471
v -1.678608 2.547535 0.760667
v -1.385627 2.547535 0.500471
v -0.506684 2.547535 1.281059
v -0.799665 2.547535 1.541254
v -1.678608 2.547535 1.281059
v -1.385627 2.547535 1.541254
v -0.799665 2.547535 1.281059
v -1.385627 2.547535 0.760667
v -0.799665 2.547535 0.760667
v -1.385627 2.547535 1.281059
v 1.544182 2.547535 1.020863
v 1.251201 2.547535 1.281059
v 0.958220 2.547535 1.020863
v 1.251201 2.547535 0.760667
v 0.665239 2.547535 1.281059
v 0.958220 2.547535 1.541254
v 0.665239 2.547535 0.760667
v 0.958220 2.547535 0.500471
v 1.837163 2.547535 0.760667
v 1.544182 2.547535 0.500471
v 1.837163 2.547535 1.281059
v 1.544182 2.547535 1.541254
v 1.544182 2.547535 1.281059
v 1.544182 2.547535 0.760667
v 0.958220 2.547535 0.760667
v 0.958220 2.547535 1.281059
v 1.397691 3.050371 1.020863
v 1.251201 3.050371 1.218774
v 1.104710 3.050371 1.020863
v 1.251201 3.050371 0.825938
v 1.544182 2.547535 1.150961
v 1.397691 2.547535 1.281059
v 1.544182 2.547535 0.890765
v 1.397691 2.547535 0.760667
v 0.958220 2.547535 0.890765
v 1.104710 2.547535 0.760667
v 0.958220 2.547535 1.150961
v 1.104710 2.547535 1.281059
v 1.104710 3.050371 0.825938
v 1.397691 3.050371 0.825938
v 1.397691 3.050371 1.218774
v 1.104710 3.050371 1.218774
v -1.092646 3.050371 1.218774
v -0.946156 3.050371 1.020863
v -1.239136 3.050371 1.020863
v -1.092646 3.050371 0.825938
v -0.799665 2.547535 1.150961
v -0.946156 2.547535 1.281059
v -1.385627 2.547535 0.890765
v -1.239136 2.547535 0.760667
v -0.799665 2.547535 0.890765
v -0.946156 2.547535 0.760667
v -1.385627 2.547535 1.150961
v -1.239136 2.547535 1.281059
v -0.946156 3.050371 0.825938
v -1.239136 3.050371 0.825938
v -0.946156 3.050371 1.218774
v -1.239136 3.050371 1.218774
vn -0.8073 -0.5902 -0.0000
vn -0.0000 -0.5454 -0.8382
vn 0.6770 -0.7360 -0.0000
vn -0.0000 -0.4630 0.8864
vn -0.0000 -1.0000 -0.0000
vn -1.0000 -0.0000 -0.0000
vn -0.0000 0.8389 -0.5442
vn -0.0000 -0.0000 1.0000
vn -0.0000 -0.0000 -1.0000
vn 1.0000 -0.0000 -0.0000
vn 0.2643 0.9174 -0.2976
vn -0.0000 1.0000 -0.0000
vn 0.4992 0.8665 -0.0000
vn -0.0000 0.8389 0.5442
vn 0.2643 0.9174 0.2976
vn -0.2643 0.9174 -0.2976
vn -0.4992 0.8665 -0.0000
vn -0.2643 0.9174 0.2976
vn 0.9601 0.2797 -0.0000
vn -0.0000 0.1287 -0.9917
vn 0.6377 0.2790 -0.7180
vn -0.6377 0.2790 -0.7180
vn -0.9601 0.2797 -0.0000
vn -0.0000 0.1229 0.9924
vn 0.6384 0.2750 0.7189
vn -0.6384 0.2750 0.7189
vt 0.375000 0.000000
vt 0.625000 0.000000
vt 0.625000 0.250000
vt 0.375000 0.250000
vt 0.625000 0.500000
vt 0.375000 0.500000
vt 0.625000 0.750000
vt 0.375000 0.750000
vt 0.625000 1.000000
vt 0.375000 1.000000
vt 0.125000 0.500000
vt 0.125000 0.750000
vt 0.625000 0.031250
vt 0.625000 0.062500
vt 0.625000 0.093750
vt 0.625000 0.125000
vt 0.625000 0.156250
vt 0.625000 0.187500
vt 0.625000 0.218750
vt 0.625000 0.390625
vt 0.625000 0.414062
vt 0.625000 0.343750
vt 0.625000 0.312500
vt 0.625000 0.781250
vt 0.625000 0.812500
vt 0.625000 0.843750
vt 0.625000 0.875000
vt 0.625000 0.906250
vt 0.625000 0.937500
vt 0.625000 0.968750
vt 0.625000 0.281250
vt 0.625000 0.375000
vt 0.625000 0.406250
vt 0.625000 0.437500
vt 0.625000 0.468750
vt 0.625000 0.531250
vt 0.625000 0.562500
vt 0.625000 0.593750
vt 0.625000 0.625000
vt 0.625000 0.656250
vt 0.625000 0.687500
vt 0.625000 0.718750
vt 0.625000 0.507812
vt 0.625000 0.554688
vt 0.625000 0.484375
vt 0.625000 0.742188
vt 0.625000 0.703125
vt 0.625000 0.722656
vt 0.625000 0.664062
vt 0.625000 0.679688
vt 0.625000 0.675781
vt 0.625000 0.671875
vt 0.625000 0.805176
vt 0.625000 0.800781
vt 0.625000 0.785156
vt 0.625000 0.539062
vt 0.625000 0.546875
vt 0.625000 0.453125
vt 0.625000 0.835938
vt 0.625000 0.765625
vt 0.625000 0.734863
vt 0.625000 0.730469
vt 0.625000 0.710938
vt 0.625000 0.707031
vt 0.625000 0.695312
vt 0.625000 0.367188
vt 0.625000 0.585938
vt 0.625000 0.578125
vt 0.625000 0.460938
vt 0.625000 0.570312
vt 0.625000 0.515625
vt 0.625000 0.699219
vt 0.625000 0.736328
vt 0.625000 0.796875
vt 0.625000 0.753906
vt 0.625000 0.748047
vt 0.625000 0.745117
vt 0.625000 0.789062
vt 0.625000 0.761719
vt 0.625000 0.734375
vt 0.625000 0.777344
vt 0.625000 0.810547
vt 0.625000 0.773438
vt 0.625000 0.791992
vt 0.625000 0.847656
vt 0.625000 0.859375
vt 0.625000 0.882812
vt 0.625000 0.839844
vt 0.625000 0.871094
vt 0.625000 0.701172
vt 0.625000 0.698242
vt 0.625000 0.667969
vt 0.625000 0.689453
vt 0.625000 0.683594
vt 0.625000 0.732422
vt 0.625000 0.721680
vt 0.625000 0.796387
vt 0.625000 0.815430
vt 0.625000 0.820312
vt 0.625000 0.768555
vt 0.625000 0.765137
vt 0.625000 0.739258
vt 0.625000 0.758301
vt 0.625000 0.754883
vt 0.625000 0.830078
vt 0.625000 0.809570
vt 0.625000 0.825195
vt 0.625000 0.726074
vt 0.625000 0.714844
vt 0.625000 0.737305
vt 0.625000 0.692383
vt 0.625000 0.703613
vt 0.625000 0.700195
vt 0.625000 0.726562
vt 0.625000 0.713867
vt 0.625000 0.710449
vt 0.625000 0.751953
vt 0.625000 0.747070
s 0
f 37/57/25 38/58/25 40/59/25 39/60/25
f 39/60/26 40/59/26 44/61/26 43/62/26
f 43/62/27 44/61/27 42/63/27 41/64/27
f 41/64/28 42/63/28 38/65/28 37/66/28
f 39/67/29 43/62/29 41/64/29 37/68/29
f 40/59/30 38/58/30 45/58/30 85/69/30 50/70/30 109/71/30 73/72/30 77/73/30 59/74/30 60/75/30 46/59/30
f 84/76/31 110/77/31 107/78/31 53/79/31
f 38/65/32 42/63/32 48/63/32 93/80/32 57/81/32 100/82/32 62/83/32 101/84/32 70/85/32 52/86/32 45/65/32
f 44/61/33 40/59/33 46/59/33 87/87/33 53/79/33 107/78/33 71/88/33 76/89/33 51/90/33 56/91/33 47/61/33
f 42/63/34 44/61/34 47/61/34 91/92/34 54/93/34 106/94/34 64/95/34 75/96/34 49/97/34 55/98/34 48/63/34
f 125/99/35 91/92/35 47/61/35 56/91/35
f 124/100/36 95/93/36 58/61/36 81/101/36
f 123/102/37 55/98/37 49/97/37 102/103/37 152/104/37
f 122/105/35 75/96/35 64/95/35 94/95/35
f 81/101/36 58/61/36 99/90/36 110/77/36
f 121/106/35 149/107/35 105/108/35 69/95/35 79/95/35
f 189/109/36 174/110/36 68/80/36 176/111/36
f 119/112/36 83/113/36 72/91/36 82/114/36
f 118/115/36 97/81/36 63/63/36 108/116/36 134/110/36
f 173/117/36 159/118/36 66/98/36 160/104/36
f 116/119/31 133/120/31 80/103/31 67/95/31 86/95/31
f 115/121/36 88/97/36 61/95/36 96/95/36
f 114/122/31 84/76/31 53/79/31 87/87/31
f 69/95/38 94/95/38 111/123/38 92/124/38
f 72/91/36 81/101/36 110/77/36 84/76/36
f 113/125/31 98/101/31 51/90/31 76/89/31
f 112/126/36 92/124/36 65/92/36 90/127/36
f 111/123/37 106/94/37 54/93/37 89/113/37
f 110/77/31 99/90/31 71/88/31 107/78/31
f 92/124/36 111/123/36 89/113/36 65/92/36
f 94/95/39 64/95/39 106/94/39 111/123/39
f 95/93/36 112/126/36 90/127/36 58/61/36
f 61/95/36 79/95/36 112/126/36 95/93/36
f 79/95/39 69/95/39 92/124/39 112/126/39
f 99/90/31 113/125/31 76/89/31 71/88/31
f 58/61/36 90/127/36 113/125/36 99/90/36
f 90/127/36 65/92/36 98/101/36 113/125/36
f 60/78/40 114/122/40 87/87/40 46/59/40
f 59/90/41 82/114/41 114/122/41 60/78/41
f 82/114/36 72/91/36 84/76/36 114/122/36
f 80/103/40 131/128/40 115/121/40 96/95/40 67/95/40
f 140/129/36 130/118/36 115/121/36 131/128/36
f 108/116/36 63/63/36 88/97/36 115/121/36 130/118/36
f 109/98/40 116/119/40 86/95/40 73/95/40
f 50/81/41 74/130/41 132/131/41 116/119/41 109/98/41
f 139/132/36 181/133/36 129/102/36 80/103/36 133/120/36
f 97/81/36 117/134/36 146/135/36 103/136/36 63/63/36
f 62/83/38 100/82/38 117/134/38 97/81/38
f 100/82/38 57/81/38 104/116/38 147/137/38 117/134/38
f 138/138/36 134/110/36 108/116/36 128/139/36 178/140/36
f 70/85/38 101/84/38 118/115/38 135/141/38 78/142/38
f 101/84/38 62/83/38 97/81/38 118/115/38
f 77/92/41 119/112/41 82/114/41 59/90/41
f 73/95/42 86/95/42 119/112/42 77/92/42
f 86/95/38 67/95/38 83/113/38 119/112/38
f 85/84/41 120/143/41 136/144/41 74/130/41 50/81/41
f 45/65/42 52/86/42 120/143/42 85/84/42
f 52/86/38 70/85/38 78/142/38 137/145/38 120/143/38
f 88/97/36 121/106/36 79/95/36 61/95/36
f 63/63/36 103/136/36 148/120/36 121/106/36 88/97/36
f 156/146/36 167/147/36 145/121/36 105/108/36 149/107/36
f 105/108/31 151/148/31 122/105/31 94/95/31 69/95/31
f 155/149/36 150/150/36 122/105/36 151/148/36
f 102/103/37 49/97/37 75/96/37 122/105/37 150/150/37
f 154/151/36 152/104/36 102/103/36 142/119/36 162/152/36
f 57/81/38 93/80/38 123/102/38 153/131/38 104/116/38
f 93/80/39 48/63/39 55/98/39 123/102/39
f 83/113/36 124/100/36 81/101/36 72/91/36
f 67/95/42 96/95/42 124/100/42 83/113/42
f 96/95/36 61/95/36 95/93/36 124/100/36
f 98/101/31 125/99/31 56/91/31 51/90/31
f 65/92/36 89/113/36 125/99/36 98/101/36
f 89/113/37 54/93/37 91/92/37 125/99/37
f 188/153/43 178/140/43 128/139/43 175/137/43
f 78/142/36 135/141/36 138/138/36 179/154/36 126/155/36
f 135/141/36 118/115/36 134/110/36 138/138/36
f 132/131/36 139/132/36 133/120/36 116/119/36
f 74/130/36 127/134/36 180/156/36 139/132/36 132/131/36
f 187/157/44 177/135/44 129/102/44 181/133/44
f 129/102/36 183/158/36 140/129/36 131/128/36 80/103/36
f 186/159/45 182/160/45 140/129/45 183/158/45
f 128/139/36 108/116/36 130/118/36 140/129/36 182/160/36
f 136/144/36 141/161/36 184/162/36 127/134/36 74/130/36
f 120/143/36 137/145/36 141/161/36 136/144/36
f 137/145/36 78/142/36 126/155/36 185/163/36 141/161/36
f 172/164/43 162/152/43 142/119/43 158/165/43
f 104/116/36 153/131/36 154/151/36 163/166/36 143/102/36
f 153/131/36 123/102/36 152/104/36 154/151/36
f 145/121/36 165/167/36 155/149/36 151/148/36 105/108/36
f 171/168/45 164/169/45 155/149/45 165/167/45
f 142/119/36 102/103/36 150/150/36 155/149/36 164/169/36
f 148/120/36 156/146/36 149/107/36 121/106/36
f 103/136/36 144/170/36 166/171/36 156/146/36 148/120/36
f 170/172/44 161/120/44 145/121/44 167/147/44
f 146/135/36 157/173/36 168/158/36 144/170/36 103/136/36
f 117/134/36 147/137/36 157/173/36 146/135/36
f 147/137/36 104/116/36 143/102/36 169/174/36 157/173/36
f 166/171/46 170/172/46 167/147/46 156/146/46
f 144/170/47 160/104/47 170/172/47 166/171/47
f 160/104/36 66/98/36 161/120/36 170/172/36
f 161/120/44 171/168/44 165/167/44 145/121/44
f 66/98/36 158/165/36 171/168/36 161/120/36
f 158/165/43 142/119/43 164/169/43 171/168/43
f 159/118/36 172/164/36 158/165/36 66/98/36
f 143/102/48 163/166/48 172/164/48 159/118/48
f 163/166/49 154/151/49 162/152/49 172/164/49
f 168/158/47 173/117/47 160/104/47 144/170/47
f 157/173/50 169/174/50 173/117/50 168/158/50
f 169/174/48 143/102/48 159/118/48 173/117/48
f 177/135/44 186/159/44 183/158/44 129/102/44
f 68/80/36 175/137/36 186/159/36 177/135/36
f 175/137/43 128/139/43 182/160/43 186/159/43
f 180/156/46 187/157/46 181/133/46 139/132/46
f 127/134/47 176/111/47 187/157/47 180/156/47
f 176/111/36 68/80/36 177/135/36 187/157/36
f 174/110/36 188/153/36 175/137/36 68/80/36
f 126/155/48 179/154/48 188/153/48 174/110/48
f 179/154/49 138/138/49 178/140/49 188/153/49
f 184/162/47 189/109/47 176/111/47 127/134/47
f 141/161/50 185/163/50 189/109/50 184/162/50
f 185/163/48 126/155/48 174/110/48 189/109/48
