# Blender 4.1.1
# www.blender.org
mtllib panzersperre2.mtl
o Cube.001
v 0.460777 0.035049 -0.460777
v 0.460777 -0.002032 -0.460777
v 0.460777 0.035049 0.460777
v 0.460777 -0.002032 0.460777
v -0.460777 0.035049 -0.460777
v -0.460777 -0.002032 -0.460777
v -0.460777 0.035049 0.460777
v -0.460777 -0.002032 0.460777
v -0.081750 0.035049 -0.335508
v -0.081750 0.647434 -0.335508
v -0.081750 0.035049 -0.217083
v -0.081750 0.647434 -0.217083
v 0.059237 0.035049 -0.335508
v 0.059237 0.647434 -0.335508
v 0.059237 0.035049 -0.217083
v 0.059237 0.647434 -0.217083
v -0.081750 0.035049 -0.059897
v -0.081750 0.647434 -0.059897
v -0.081750 0.035049 0.058528
v -0.081750 0.647434 0.058528
v 0.059237 0.035049 -0.059897
v 0.059237 0.647434 -0.059897
v 0.059237 0.035049 0.058528
v 0.059237 0.647434 0.058528
v 0.059237 0.647434 0.335619
v 0.059237 0.035049 0.335619
v 0.059237 0.647434 0.217194
v 0.059237 0.035049 0.217194
v -0.081750 0.647434 0.335619
v -0.081750 0.035049 0.335619
v -0.081750 0.647434 0.217194
v -0.081750 0.035049 0.217194
v -0.081750 0.035049 -0.059897
v -0.081750 0.647434 -0.059897
v -0.081750 0.035049 0.058528
v -0.081750 0.647434 0.058528
v 0.059237 0.035049 -0.059897
v 0.059237 0.647434 -0.059897
v 0.059237 0.035049 0.058528
v 0.059237 0.647434 0.058528
vn -0.0000 1.0000 -0.0000
vn -0.0000 -0.0000 1.0000
vn -1.0000 -0.0000 -0.0000
vn -0.0000 -1.0000 -0.0000
vn 1.0000 -0.0000 -0.0000
vn -0.0000 -0.0000 -1.0000
vt 0.625000 0.500000
vt 0.875000 0.500000
vt 0.875000 0.750000
vt 0.625000 0.750000
vt 0.375000 0.750000
vt 0.625000 1.000000
vt 0.375000 1.000000
vt 0.375000 0.000000
vt 0.625000 0.000000
vt 0.625000 0.250000
vt 0.375000 0.250000
vt 0.125000 0.500000
vt 0.375000 0.500000
vt 0.125000 0.750000
s 0
usemtl Material.001
f 1/1/1 5/2/1 7/3/1 3/4/1
f 4/5/2 3/4/2 7/6/2 8/7/2
f 8/8/3 7/9/3 5/10/3 6/11/3
f 6/12/4 2/13/4 4/5/4 8/14/4
f 2/13/5 1/1/5 3/4/5 4/5/5
f 6/11/6 5/10/6 1/1/6 2/13/6
f 9/8/5 10/9/5 12/10/5 11/11/5
f 11/11/6 12/10/6 16/1/6 15/13/6
f 15/13/3 16/1/3 14/4/3 13/5/3
f 13/5/2 14/4/2 10/6/2 9/7/2
f 11/12/1 15/13/1 13/5/1 9/14/1
f 16/1/4 12/2/4 10/3/4 14/4/4
f 17/8/5 18/9/5 20/10/5 19/11/5
f 19/11/6 20/10/6 24/1/6 23/13/6
f 23/13/3 24/1/3 22/4/3 21/5/3
f 21/5/2 22/4/2 18/6/2 17/7/2
f 19/12/1 23/13/1 21/5/1 17/14/1
f 24/1/4 20/2/4 18/3/4 22/4/4
f 25/1/4 29/2/4 31/3/4 27/4/4
f 30/12/1 26/13/1 28/5/1 32/14/1
f 28/5/2 27/4/2 31/6/2 32/7/2
f 26/13/3 25/1/3 27/4/3 28/5/3
f 30/11/6 29/10/6 25/1/6 26/13/6
f 32/8/5 31/9/5 29/10/5 30/11/5
f 33/8/5 34/9/5 36/10/5 35/11/5
f 35/11/6 36/10/6 40/1/6 39/13/6
f 39/13/3 40/1/3 38/4/3 37/5/3
f 37/5/2 38/4/2 34/6/2 33/7/2
f 35/12/1 39/13/1 37/5/1 33/14/1
f 40/1/4 36/2/4 34/3/4 38/4/4
